<svg class="border shadow-md dark:border-slate-700" viewBox="0 0 689.04 689.04" style="width: 689.04px; height: 689.04px;" xmlns="http://www.w3.org/2000/svg" preserveAspectRatio="none"><rect class="bg" id="bg" x="0" y="0" width="689.04" height="689.04" fill="#ffffff"/><path d="M 0 -68.904 L 0 -68.90&#10;                L 50.00 -9.90&#10;                L 137.808 -68.90 L 137.808 -68.90&#10;                L 183.74 -10.90&#10;                L 275.616 -68.90 L 275.616 -68.90&#10;                L 356.62 -34.45&#10;                L 413.424 -68.90 L 413.424 -68.90&#10;                L 485.42 -34.45&#10;                L 551.232 -68.90 L 551.232 -68.90&#10;                L 604.23 -0.90&#10;                L 689.04 -68.90 L 689.04 -68.90&#10;                L 761.04 -34.45&#10;                L 826.848 -68.90  V 689.04 H 0 V -68.90 Z" fill="#F95164"/><path d="M 0 0 L 0 0.00&#10;                L 45.94 56.00&#10;                L 137.808 0.00 L 137.808 0.00&#10;                L 227.81 65.00&#10;                L 275.616 0.00 L 275.616 0.00&#10;                L 338.62 37.00&#10;                L 413.424 0.00 L 413.424 0.00&#10;                L 459.36 34.45&#10;                L 551.232 0.00 L 551.232 0.00&#10;                L 597.17 34.45&#10;                L 689.04 0.00 L 689.04 0.00&#10;                L 734.98 52.00&#10;                L 826.848 0.00  V 689.04 H 0 V 0.00 Z" fill="#e24c61"/><path d="M 0 68.904 L 0 68.90&#10;                L 58.00 103.36&#10;                L 137.808 68.90 L 137.808 68.90&#10;                L 183.74 103.36&#10;                L 275.616 68.90 L 275.616 68.90&#10;                L 321.55 103.36&#10;                L 413.424 68.90 L 413.424 68.90&#10;                L 459.36 103.36&#10;                L 551.232 68.90 L 551.232 68.90&#10;                L 650.23 103.90&#10;                L 689.04 68.90 L 689.04 68.90&#10;                L 734.98 128.90&#10;                L 826.848 68.90  V 689.04 H 0 V 68.90 Z" fill="#cb475e"/><path d="M 0 137.808 L 0 137.81&#10;                L 45.94 172.26&#10;                L 137.808 137.81 L 137.808 137.81&#10;                L 183.74 190.81&#10;                L 275.616 137.81 L 275.616 137.81&#10;                L 321.55 172.26&#10;                L 413.424 137.81 L 413.424 137.81&#10;                L 459.36 172.81&#10;                L 551.232 137.81 L 551.232 137.81&#10;                L 597.23 181.81&#10;                L 689.04 137.81 L 689.04 137.81&#10;                L 734.98 172.26&#10;                L 826.848 137.81  V 689.04 H 0 V 137.81 Z" fill="#b4425b"/><path d="M 0 206.712 L 0 206.71&#10;                L 45.94 241.16&#10;                L 137.808 206.71 L 137.808 206.71&#10;                L 183.74 241.16&#10;                L 275.616 206.71 L 275.616 206.71&#10;                L 339.62 270.71&#10;                L 413.424 206.71 L 413.424 206.71&#10;                L 505.42 241.16&#10;                L 551.232 206.71 L 551.232 206.71&#10;                L 607.23 260.71&#10;                L 689.04 206.71 L 689.04 206.71&#10;                L 783.04 241.16&#10;                L 826.848 206.71  V 689.04 H 0 V 206.71 Z" fill="#9d3d58"/><path d="M 0 275.616 L 0 275.62&#10;                L 45.94 310.07&#10;                L 137.808 275.62 L 137.808 275.62&#10;                L 183.74 341.62&#10;                L 275.616 275.62 L 275.616 275.62&#10;                L 321.55 310.07&#10;                L 413.424 275.62 L 413.424 275.62&#10;                L 459.36 310.07&#10;                L 551.232 275.62 L 551.232 275.62&#10;                L 597.17 336.62&#10;                L 689.04 275.62 L 689.04 275.62&#10;                L 762.04 310.07&#10;                L 826.848 275.62  V 689.04 H 0 V 275.62 Z" fill="#863855"/><path d="M 0 344.52 L 0 344.52&#10;                L 45.94 378.97&#10;                L 137.808 344.52 L 137.808 344.52&#10;                L 183.74 386.52&#10;                L 275.616 344.52 L 275.616 344.52&#10;                L 342.62 379.52&#10;                L 413.424 344.52 L 413.424 344.52&#10;                L 509.42 378.97&#10;                L 551.232 344.52 L 551.232 344.52&#10;                L 610.23 378.97&#10;                L 689.04 344.52 L 689.04 344.52&#10;                L 734.98 378.97&#10;                L 826.848 344.52  V 689.04 H 0 V 344.52 Z" fill="#6f3352"/><path d="M 0 413.424 L 0 413.42&#10;                L 46.00 461.42&#10;                L 137.808 413.42 L 137.808 413.42&#10;                L 215.81 447.88&#10;                L 275.616 413.42 L 275.616 413.42&#10;                L 339.62 471.42&#10;                L 413.424 413.42 L 413.424 413.42&#10;                L 459.36 447.88&#10;                L 551.232 413.42 L 551.232 413.42&#10;                L 597.17 447.88&#10;                L 689.04 413.42 L 689.04 413.42&#10;                L 738.04 447.88&#10;                L 826.848 413.42  V 689.04 H 0 V 413.42 Z" fill="#582e4f"/><path d="M 0 482.328 L 0 482.33&#10;                L 72.00 520.33&#10;                L 137.808 482.33 L 137.808 482.33&#10;                L 183.74 516.78&#10;                L 275.616 482.33 L 275.616 482.33&#10;                L 348.62 516.78&#10;                L 413.424 482.33 L 413.424 482.33&#10;                L 486.42 516.78&#10;                L 551.232 482.33 L 551.232 482.33&#10;                L 635.23 516.78&#10;                L 689.04 482.33 L 689.04 482.33&#10;                L 734.98 516.78&#10;                L 826.848 482.33  V 689.04 H 0 V 482.33 Z" fill="#41294c"/><path d="M 0 551.232 L 0 551.23&#10;                L 61.00 610.23&#10;                L 137.808 551.23 L 137.808 551.23&#10;                L 217.81 592.23&#10;                L 275.616 551.23 L 275.616 551.23&#10;                L 321.55 585.68&#10;                L 413.424 551.23 L 413.424 551.23&#10;                L 495.42 597.23&#10;                L 551.232 551.23 L 551.232 551.23&#10;                L 597.17 606.23&#10;                L 689.04 551.23 L 689.04 551.23&#10;                L 734.98 585.68&#10;                L 826.848 551.23  V 689.04 H 0 V 551.23 Z" fill="#2a2449"/><path d="M 0 620.136 L 0 620.14&#10;                L 102.00 656.14&#10;                L 137.808 620.14 L 137.808 620.14&#10;                L 209.81 654.59&#10;                L 275.616 620.14 L 275.616 620.14&#10;                L 321.55 654.59&#10;                L 413.424 620.14 L 413.424 620.14&#10;                L 459.36 654.59&#10;                L 551.232 620.14 L 551.232 620.14&#10;                L 597.17 654.59&#10;                L 689.04 620.14 L 689.04 620.14&#10;                L 734.98 654.59&#10;                L 826.848 620.14  V 689.04 H 0 V 620.14 Z" fill="#131f46"/></svg>