<?xml version="1.0" encoding="utf-8" ?>
<svg xmlns="http://www.w3.org/2000/svg" xmlns:xlink="http://www.w3.org/1999/xlink" width="638" height="168">
	<path fill="#096BEE" d="M590.887 74.3375C597.682 73.4815 604.316 75.1013 611.076 75.3034C617.287 75.4891 624.343 74.1333 630.392 75.5037C630.451 75.5995 630.452 75.5959 630.497 75.6845C630.515 75.7205 630.531 75.7571 630.549 75.7931C630.715 76.125 630.858 76.4611 630.906 76.8326C631.713 83.1661 630.889 91.4163 630.823 97.9257C630.705 109.629 631.812 123.455 629.822 134.807C628.939 139.846 627.33 144.721 624.222 148.84C619.09 155.641 610.528 159.426 602.264 160.559C593.424 161.77 581.849 160.536 574.753 154.608C572.499 152.725 570.851 149.953 568.593 148.257L568.525 148.207C568.421 146.516 566.556 144.981 566.262 143.207C566.131 142.42 566.27 141.863 566.75 141.233C567.294 140.52 569.465 140.522 570.335 140.447C574.79 140.063 579.459 139.956 583.88 140.731C588.717 141.58 593.363 144 598.387 143.294C602.625 142.698 605.577 140.039 608.034 136.722C609.059 135.338 609.871 134.022 609.607 132.253C606.71 133.333 603.627 134.444 600.593 135.053C592.981 136.579 584.914 134.51 578.522 130.228C571.81 125.732 567.822 118.964 566.265 111.097C564.66 102.985 565.92 94.3073 570.572 87.3813C575.338 80.2859 582.62 75.9615 590.887 74.3375ZM598.791 116.832C602.511 116.426 605.619 115.145 608.017 112.13C609.971 109.673 610.883 106.623 610.503 103.499Q610.425 102.884 610.288 102.279Q610.15 101.674 609.954 101.086Q609.757 100.498 609.504 99.9317Q609.251 99.3656 608.944 98.8269Q608.637 98.2883 608.279 97.7824Q607.92 97.2765 607.514 96.8082Q607.107 96.3399 606.657 95.9137Q606.207 95.4875 605.717 95.1075C602.94 92.9699 599.246 92.0695 595.781 92.4155C591.866 93.4102 588.447 94.9445 586.275 98.5662C584.626 101.315 584.137 104.875 584.913 107.98C585.666 110.992 587.677 113.53 590.323 115.117C592.871 116.645 595.856 117.195 598.791 116.832Z"/>
	<path fill="#0B113F" d="M62.1069 49.6853C66.1355 49.238 70.4391 49.601 74.4839 49.797L74.5193 138.975C68.9206 138.273 62.7702 138.615 57.127 138.789L56.5412 134.392C54.126 135.743 51.7347 136.979 49.1006 137.85C39.7394 140.946 29.6635 139.628 20.9695 135.258C15.2406 132.125 11.0811 128.541 8.17592 122.612C4.01417 114.118 3.44951 103.179 6.50276 94.2483Q6.7579 93.5138 7.04897 92.7928Q7.34003 92.0719 7.66632 91.3661Q7.99261 90.6604 8.35332 89.9717Q8.71403 89.2829 9.10828 88.6128Q9.50253 87.9427 9.92936 87.293Q10.3562 86.6432 10.8146 86.0152Q11.2729 85.3873 11.7617 84.7828Q12.2505 84.1783 12.7686 83.5986Q13.2866 83.019 13.8326 82.4657Q14.3786 81.9123 14.9512 81.3866Q15.5239 80.8609 16.1217 80.3641Q16.7196 79.8674 17.3413 79.4007Q17.9629 78.9341 18.6068 78.4987Q19.2508 78.0634 19.9154 77.6603Q20.58 77.2573 21.2637 76.8876Q21.9474 76.5179 22.6485 76.1824C34.3693 70.4654 44.4458 73.4279 55.9616 77.4027C55.6756 72.582 54.3407 54.784 56.1523 51.1341C57.5227 49.6791 60.2434 49.8245 62.1069 49.6853ZM41.7224 120.025C46.0399 119.125 49.579 117.56 52.0874 113.717C54.091 110.647 54.8422 107.077 54.065 103.482C53.2439 99.6831 50.8555 96.1175 47.5661 94.0268C44.744 92.2332 40.9844 91.4484 37.6724 92.0282C33.0045 92.9107 28.9179 94.1318 26.0996 98.3078C24.0115 101.402 23.3987 105.432 24.1381 109.061C24.8502 112.556 26.9218 115.76 29.9113 117.723C33.4873 120.071 37.5897 120.338 41.7224 120.025Z"/>
	<path fill="#0B113F" d="M112.305 74.2923C118.135 73.0894 124.899 74.778 130.37 76.6803C137.574 74.9459 145.304 75.4291 152.67 75.3677Q153.151 91.875 153.244 108.389C153.229 118.593 152.944 128.781 153.035 138.99C147.656 138.488 140.624 138.867 134.992 138.702L133.717 135.472C132.092 136.294 130.432 136.961 128.738 137.623C126.422 138.419 124.099 139.018 121.666 139.329Q120.817 139.433 119.964 139.496Q119.111 139.559 118.256 139.58Q117.401 139.602 116.546 139.581Q115.691 139.561 114.838 139.499Q113.985 139.437 113.136 139.334Q112.287 139.231 111.444 139.086Q110.601 138.942 109.766 138.756Q108.931 138.571 108.106 138.345Q107.281 138.12 106.468 137.854Q105.655 137.588 104.856 137.284Q104.057 136.979 103.273 136.635Q102.49 136.292 101.724 135.911Q100.958 135.53 100.212 135.112Q99.4655 134.694 98.7403 134.241Q98.0152 133.787 97.3129 133.298Q96.6106 132.81 95.9329 132.288C89.7303 127.47 86.5367 120.194 85.5728 112.53C84.3601 102.886 85.7425 93.1646 91.8399 85.3421C97.1011 78.5925 103.936 75.3331 112.305 74.2923ZM118.981 120.344C123.384 119.933 127.258 118.672 130.17 115.126C132.449 112.349 133.43 108.909 133.07 105.344Q133.003 104.663 132.871 103.992Q132.738 103.32 132.54 102.665Q132.342 102.01 132.081 101.378Q131.82 100.745 131.498 100.141Q131.177 99.5375 130.798 98.9679Q130.418 98.3984 129.985 97.8687Q129.552 97.339 129.07 96.8543Q128.587 96.3696 128.059 95.9344C125.274 93.6703 122.015 92.838 118.497 92.717C114.431 92.87 110.559 94.1533 107.716 97.204C105.249 99.8524 104.175 103.406 104.33 106.988Q104.354 107.652 104.444 108.31Q104.534 108.969 104.689 109.615Q104.843 110.261 105.061 110.889Q105.279 111.517 105.558 112.12Q105.837 112.723 106.174 113.295Q106.511 113.868 106.903 114.404Q107.295 114.941 107.738 115.436Q108.181 115.93 108.671 116.379C111.649 119.112 115.09 119.953 118.981 120.344Z"/>
	<path fill="#4090EC" d="M485.501 3.2726Q492.446 2.83926 499.386 3.33837C516.301 4.71404 533.64 11.398 544.816 24.5885C546.856 26.9965 555.962 38.8167 555.75 41.3942C558.524 40.4267 561.145 38.9243 563.911 37.8859C571.731 34.9503 580.884 35.7543 588.399 39.1873C597.41 43.3043 606.209 49.9912 609.767 59.5488C610.621 61.8425 611.824 65.6509 610.782 67.9323C608.104 67.1656 603.874 67.5376 601.017 67.4905C601.024 67.419 601.033 67.3474 601.037 67.2755C601.191 64.7221 597.531 60.4376 595.856 58.6014C583.238 44.7664 562.723 53.6557 546.909 52.9425C546.289 51.8217 544.567 50.6728 543.692 49.5535C539.704 44.4503 535.388 35.6994 529.728 32.5781C529.676 32.4504 529.639 32.3567 529.55 32.2489C523.818 25.2828 508.052 20.9326 499.482 20.0166C476.895 17.6024 453.446 29.7748 443.264 50.3347C441.441 54.0159 440.424 62.1177 437.31 64.582C437.291 64.5974 437.271 64.6122 437.251 64.6273C433.154 65.5378 412.446 64.4262 408.999 62.5166C408.263 62.1087 407.653 61.5093 407.437 60.675C407.052 59.1941 407.715 57.1467 408.453 55.8622C412.026 49.6373 419.457 49.9671 425.538 48.3037C430.367 45.3882 435.74 32.4797 439.602 27.2793C446.782 17.6117 459.146 9.70781 470.591 6.2262C475.431 4.75399 480.506 4.00576 485.501 3.2726Z"/>
	<path fill="#096BEE" d="M384.262 50.0261C387.084 49.964 392.68 49.1884 395.149 50.3926Q395.489 51.0516 395.626 51.7803C396.297 55.2625 396.731 74.9337 395.145 77.3079C398.798 76.3 402.475 75.2352 406.173 74.4051C414.361 72.5673 423.51 73.6112 430.672 78.1787C436.91 82.1567 442.035 89.0988 443.628 96.3635Q444.434 100.026 444.658 103.77C444.993 108.758 445.819 135.256 443.986 138.116C440.982 139.888 427.976 138.823 423.75 139.029Q423.982 138.55 424.086 138.029C424.649 135.161 424.628 110.608 423.488 108.931C424.268 107.52 424.076 104.522 423.879 102.955C423.521 100.106 421.856 97.3602 419.582 95.6358C416.242 93.1029 411.689 92.5517 407.631 93.1251C403.547 93.7021 400.074 95.6659 398.083 99.3709C394.399 106.222 395.95 122.375 396.065 130.343C396.099 132.684 396.369 136.753 394.893 138.664C394.875 138.687 394.857 138.71 394.839 138.732C391.151 139.575 380.519 138.457 375.711 138.835C375.941 138.439 376.103 137.94 376.171 137.489C376.608 134.573 376.302 131.15 376.27 128.188Q376.138 119.47 376.121 110.751L376.118 72.1316C376.121 65.6839 376.293 59.196 376.115 52.7541C376.087 51.7584 376.086 50.9001 375.474 50.0668C378.393 50.201 381.34 50.0737 384.262 50.0261Z"/>
	<path fill="#0B113F" d="M240.186 50.0259L251.431 50.0927C251.55 50.2769 251.652 50.4657 251.727 50.6722C252.436 52.6473 252.663 75.9939 251.889 77.6572C254.794 77.0495 257.576 75.6379 260.484 74.9249C268.684 72.9148 279.493 73.8942 286.787 78.3254C292.777 81.9646 297.648 88.3838 299.304 95.2184C300.671 100.864 302.12 135.035 299.839 138.774C293.45 139.506 287.009 138.955 280.599 139.206C280.794 138.855 280.948 138.47 281.015 138.073C281.842 133.125 281.04 121.871 280.954 116.141C280.925 114.206 281.233 112.154 281.065 110.243C281.023 109.769 280.794 109.321 280.523 108.937C280.532 108.918 280.543 108.899 280.551 108.88C280.566 108.847 280.578 108.814 280.594 108.781C281.342 107.181 280.8 104.817 280.388 103.161C279.58 99.9094 277.869 96.6658 274.913 94.9176C271.374 92.8238 266.246 92.8531 262.331 93.881C258.755 94.8201 255.879 97.1367 254.316 100.506C251.099 107.441 252.522 122.538 252.73 130.598C252.796 133.133 253.305 136.466 251.98 138.718L251.933 138.796C245.838 140.032 238.506 138.994 232.259 138.852L232.281 138.786C233.371 135.539 232.928 128.483 232.954 124.784C233.035 113.115 232.788 101.46 232.768 89.7948L232.671 65.3476C232.661 60.8298 232.884 56.1848 232.586 51.6862C232.555 51.219 232.392 50.7738 232.187 50.3564C234.827 50.0983 237.533 50.1148 240.186 50.0259Z"/>
	<path fill="#096BEE" d="M521.937 74.3375C528.665 73.8058 535.565 74.1494 541.495 77.7251C548.198 81.767 553.16 89.4017 555.005 96.93C556.27 102.091 557.45 135.186 555.249 138.82C548.807 138.479 542.265 138.797 535.803 138.675C536.345 137.763 536.303 136.734 536.338 135.707C536.558 129.37 536.425 123.025 536.359 116.686C536.317 112.729 536.547 108.497 535.935 104.585C535.602 102.454 534.985 99.7414 533.478 98.1491C530.34 94.8329 526.417 93.9873 522.035 93.872C520.694 94.0128 519.307 94.2045 518.033 94.6571C514.98 95.7419 512.394 97.8112 511.021 100.79C508.234 106.834 509.587 122.76 509.714 130.034C509.758 132.562 510.025 136.127 508.923 138.441C506.251 139.853 493.373 138.898 489.651 138.856Q489.771 138.424 489.854 137.983C490.745 133.125 490.054 124.943 490.065 119.629C490.092 106.023 490.916 91.3167 489.602 77.8368C489.499 76.7789 489.277 76.0081 488.675 75.1242C492.651 75.2553 496.642 75.1241 500.622 75.2317C509.435 75.4701 512.883 76.1529 521.937 74.3375Z"/>
	<path fill="#096BEE" d="M331.502 49.7142C334.198 49.6795 336.957 49.5769 339.643 49.8478C340.467 49.931 341.539 50.016 342.096 50.7029C342.82 54.3119 343.374 72.2413 342.328 75.1551C349.073 75.1919 355.937 74.9936 362.659 75.5021C363.612 76.6356 363.555 79.5798 363.622 81.0263C363.75 83.7673 364.268 91.2078 362.298 93.3671C358.817 94.2845 346.477 93.3337 341.998 93.162C343.578 95.6176 342.262 104.454 342.169 107.669C342.075 110.946 343.983 114.826 343.614 117.669C346.34 118.122 348.914 118.925 351.708 119.206C355.346 119.57 359.019 119.374 362.664 119.739Q362.754 119.857 362.837 119.98C364.489 122.46 363.503 134.705 362.864 138.174C362.103 138.779 361.605 138.622 360.666 138.609C353.889 137.906 347.17 139.364 340.223 137.714C321.737 133.322 322.271 116.578 322.322 101.194C322.329 99.082 322.655 95.3829 321.517 93.5655C321.503 93.5427 321.488 93.5202 321.473 93.4976C316.75 93.5493 311.995 93.6035 307.277 93.3656C307.287 93.3405 307.297 93.3156 307.306 93.2902C307.458 92.8753 307.618 92.4817 307.706 92.046C308.315 89.0235 308.196 77.6919 306.506 75.0976C311.603 75.2778 316.75 75.0935 321.854 75.117C324.37 71.9971 320.577 55.7232 322.896 51.0328C324.537 49.386 329.28 49.7723 331.502 49.7142Z"/>
	<path fill="#0B113F" d="M188.458 73.0895Q189.343 73.0203 190.231 72.9873C198.088 72.6975 206.198 74.0351 212.137 79.5639C214.649 81.9036 218.934 87.183 219.005 90.7045C219.01 90.9551 219.014 91.5044 218.826 91.6825C217.269 93.1548 202.941 93.8469 200.2 93.8104C200.181 93.7565 200.16 93.6859 200.13 93.6346C199.223 92.1114 196.264 90.9368 194.605 90.6214C191.76 90.0804 188.159 90.2131 185.705 91.9319C184.89 92.5026 184.337 93.1399 184.166 94.1519C184.752 98.5106 200.673 99.6157 204.441 100.756C208.524 101.992 212.66 104.107 215.658 107.191C218.787 110.409 220.085 114.513 220.011 118.945C219.924 124.168 218.155 129.117 214.328 132.803C207.567 139.313 198.188 139.882 189.328 139.71C184.43 139.364 179.758 138.544 175.338 136.314C168.199 132.714 165.363 127.103 162.96 119.787C168.102 119.325 176.674 117.8 181.501 118.989C186.557 120.235 188.585 125.698 194.858 125.396C196.831 125.301 198.476 124.471 199.798 123.012C200.547 122.187 201.639 120.827 201.586 119.664C201.07 118.167 198.968 117.119 197.571 116.606C189.282 113.565 178.274 114.07 170.63 108.099C167.322 105.515 165.794 101.862 165.295 97.7781C164.598 92.0681 165.445 86.0135 169.102 81.388C173.786 75.4635 181.383 73.9367 188.458 73.0895Z"/>
	<path fill="#096BEE" d="M459.146 75.2726C461.357 74.9281 475.147 75.0478 477.185 75.4753C477.248 75.5773 477.293 75.6549 477.33 75.7698C478.519 79.4986 477.634 109.691 477.6 116.252C477.572 121.605 477.867 126.977 477.676 132.326C477.623 133.79 477.695 136.936 476.942 138.179C476.655 138.653 475.898 138.68 475.372 138.804C469.421 139.056 463.415 138.572 457.491 139.055C457.886 138.498 458.053 137.898 458.109 137.222C458.571 131.633 458.126 125.816 458.088 120.201C458.031 111.734 458.204 103.249 458.02 94.7852C457.907 89.6075 457.322 84.296 457.626 79.1363C457.727 77.4344 457.862 76.4175 459.146 75.2726Z"/>
	<path fill="#096BEE" d="M466.395 48.1558C469.213 48.0018 472.288 48.5717 474.525 50.3789C476.585 52.0425 477.758 54.4267 478.028 57.0425C478.3 59.6746 477.747 62.5694 476.027 64.6459C474.044 67.041 471.54 67.5211 468.607 67.7892C466.877 68.2438 463.887 67.7467 462.318 66.8723C460.305 65.7502 459.047 63.8478 458.445 61.6557C457.677 58.8574 457.796 55.533 459.28 52.9832C460.894 50.2081 463.394 48.9483 466.395 48.1558Z"/>
</svg>
